<?xml version="1.0" standalone="no"?>
<svg xmlns="http://www.w3.org/2000/svg" viewBox="0 0 323.67765726681125 117.39765726681128" width="323.67765726681125" height="117.39765726681128"><rect fill="#09252a" width="323.67765726681125" height="117.39765726681128" x="0" y="0"></rect><g fill="white" color="white" transform="translate(12 12) scale(0.9339766)"><svg width="100.0" height="100.0" x="0.0" y="0.0" viewBox="0 0 100 100"><path d="M65.454,3.129c-0.026-0.735-0.647-1.442-1.385-1.417L50.721,2.185c-0.738,0.026-1.307,0.858-1.281,1.597l0.321,9.046  l16.017-0.569L65.454,3.129z"></path><rect x="51.172" y="17.86" transform="matrix(0.9994 -0.0353 0.0353 0.9994 -1.82 2.1228)" width="16.026" height="69.45"></rect><path d="M52.745,97.213c0.026,0.73,0.636,1.096,1.375,1.074l13.348-0.475c0.738-0.026,1.317-0.517,1.292-1.252l-0.149-4.216  l-16.016,0.563L52.745,97.213z"></path><path d="M3,96.743c0,0.735,0.597,1.336,1.335,1.336h13.355c0.738,0,1.336-0.601,1.336-1.336V39.314H3V96.743z"></path><path d="M19.027,13.938c0-0.738-0.598-1.335-1.336-1.335H4.336C3.598,12.603,3,13.201,3,13.938v9.349h16.027V13.938z"></path><path d="M45.738,24.753c0-0.738-0.597-1.335-1.335-1.335H25.705c-0.738,0-1.335,0.597-1.335,1.335v9.219h21.369V24.753z"></path><path d="M24.37,44.657v52.086c0,0.735,0.597,1.336,1.335,1.336h18.698c0.738,0,1.335-0.601,1.335-1.336V44.657H24.37z"></path><path d="M81.102,96.926c0.104,0.735,0.777,1.241,1.513,1.138l13.22-1.879c0.73-0.104,1.252-0.673,1.153-1.408l-8.833-62.25  l-15.87,2.254L81.102,96.926z"></path><path d="M86.09,17.979c-0.104-0.73-0.777-1.237-1.508-1.132l-13.225,1.875c-0.73,0.102-1.252,0.673-1.148,1.403l1.325,9.362  l15.87-2.251L86.09,17.979z"></path></svg></g><path fill="white" fill-rule="nonzero" d="M21.60 36.16L0 36.16L0 34.32L3.68 33.44L3.68 10.88L0 10.00L0 8.16L12.28 8.16L12.28 10.00L8.60 10.88L8.60 33.48L18 33.48L20.16 27.52L22 27.52L21.60 36.16ZM37 36.16L24.72 36.16L24.72 34.32L28.44 33.44L28.44 10.88L24.72 10.00L24.72 8.16L37 8.16L37 10.00L33.32 10.88L33.32 33.44L37 34.32L37 36.16ZM53.84 36.16L40.52 36.16L40.52 34.32L44.20 33.44L44.20 10.88L40.52 10.00L40.52 8.16L52 8.16Q61.76 8.16 61.76 14.96L61.76 14.96Q61.76 17.16 60.46 18.80Q59.16 20.44 56.92 21.16L56.92 21.16L56.92 21.24Q60.20 21.84 61.98 23.68Q63.76 25.52 63.76 28.28L63.76 28.28Q63.76 31.88 61.08 34.02Q58.40 36.16 53.84 36.16L53.84 36.16ZM49.12 22.88L49.12 33.72L52.60 33.72Q55.52 33.72 57.12 32.32Q58.72 30.92 58.72 28.28L58.72 28.28Q58.72 25.84 57.06 24.36Q55.40 22.88 52.40 22.88L52.40 22.88L49.12 22.88ZM49.12 10.60L49.12 20.36L51.40 20.36Q53.72 20.36 55.22 19.02Q56.72 17.68 56.72 15.32L56.72 15.32Q56.72 12.92 55.22 11.76Q53.72 10.60 51.16 10.60L51.16 10.60L49.12 10.60ZM79.36 36.16L67.08 36.16L67.08 34.32L70.76 33.44L70.76 10.88L67.08 10.00L67.08 8.16L78.40 8.16Q80.56 8.16 82.36 8.50Q84.16 8.84 85.86 9.66Q87.56 10.48 88.54 12.10Q89.52 13.72 89.52 16.00L89.52 16.00Q89.52 21.32 84 23.20L84 23.20L89.56 33.48L93.08 34.36L93.08 36.16L85.80 36.16L79.20 23.80L75.68 23.80L75.68 33.44L79.36 34.32L79.36 36.16ZM75.68 10.68L75.68 21.40L78 21.40Q80.92 21.40 82.70 19.96Q84.48 18.52 84.48 15.92L84.48 15.92Q84.48 13.36 82.72 12.02Q80.96 10.68 78 10.68L78 10.68L75.68 10.68ZM116.56 36.16L94.96 36.16L94.96 34.32L98.64 33.44L98.64 10.88L94.96 10.00L94.96 8.16L115.80 8.16L115.80 16.36L113.92 16.36L112.20 10.84L103.56 10.52L103.56 20.80L112.20 20.04L112.20 23.60L103.56 22.88L103.56 33.80L112.96 33.48L115 27.52L116.88 27.52L116.56 36.16ZM132.88 36.16L120.60 36.16L120.60 34.32L124.28 33.44L124.28 10.88L120.60 10.00L120.60 8.16L131.92 8.16Q134.08 8.16 135.88 8.50Q137.68 8.84 139.38 9.66Q141.08 10.48 142.06 12.10Q143.04 13.72 143.04 16.00L143.04 16.00Q143.04 21.32 137.52 23.20L137.52 23.20L143.08 33.48L146.60 34.36L146.60 36.16L139.32 36.16L132.72 23.80L129.20 23.80L129.20 33.44L132.88 34.32L132.88 36.16ZM129.20 10.68L129.20 21.40L131.52 21.40Q134.44 21.40 136.22 19.96Q138 18.52 138 15.92L138 15.92Q138 13.36 136.24 12.02Q134.48 10.68 131.52 10.68L131.52 10.68L129.20 10.68ZM160.76 36.16L148.48 36.16L148.48 34.32L152.20 33.44L152.20 10.88L148.48 10.00L148.48 8.16L160.76 8.16L160.76 10.00L157.08 10.88L157.08 33.44L160.76 34.32L160.76 36.16ZM153.04 6.76L151.96 5.48L158.28 0Q160.28 0.68 161.60 3.12L161.60 3.12L153.04 6.76ZM172.20 36.16L162.12 36.16L162.12 34.32L165.88 33.44L175.60 7.96L178.48 7.96L187.60 33.48L191.28 34.32L191.28 36.16L179.52 36.16L179.52 34.32L182.48 33.64L180.56 28.24L170.76 28.24L168.68 33.52L172.20 34.32L172.20 36.16ZM175.76 14.96L171.64 25.88L179.68 25.88L175.76 14.96Z" transform="translate(120.398 12) scale(1)"></path><path fill="white" fill-rule="nonzero" d="M3.56 2.92L0 2.04L0 0.20L12.12 0.20L12.12 2.04L8.84 2.72L15.64 21.92L22.04 2.92L18.88 2.04L18.88 0.20L28.52 0.20L28.52 2.04L24.84 2.92L16.04 28.48L12.88 28.48L3.56 2.92ZM51.72 28.20L30.12 28.20L30.12 26.36L33.80 25.48L33.80 2.92L30.12 2.04L30.12 0.20L50.96 0.20L50.96 8.40L49.08 8.40L47.36 2.88L38.72 2.56L38.72 12.84L47.36 12.08L47.36 15.64L38.72 14.92L38.72 25.84L48.12 25.52L50.16 19.56L52.04 19.56L51.72 28.20ZM68.04 28.20L55.76 28.20L55.76 26.36L59.44 25.48L59.44 2.92L55.76 2.04L55.76 0.20L67.08 0.20Q69.24 0.20 71.04 0.54Q72.84 0.88 74.54 1.70Q76.24 2.52 77.22 4.14Q78.20 5.76 78.20 8.04L78.20 8.04Q78.20 13.36 72.68 15.24L72.68 15.24L78.24 25.52L81.76 26.40L81.76 28.20L74.48 28.20L67.88 15.84L64.36 15.84L64.36 25.48L68.04 26.36L68.04 28.20ZM64.36 2.72L64.36 13.44L66.68 13.44Q69.60 13.44 71.38 12Q73.16 10.56 73.16 7.96L73.16 7.96Q73.16 5.40 71.40 4.06Q69.64 2.72 66.68 2.72L66.68 2.72L64.36 2.72ZM91.56 28.20L81.48 28.20L81.48 26.36L85.24 25.48L94.96 0L97.84 0L106.96 25.52L110.64 26.36L110.64 28.20L98.88 28.20L98.88 26.36L101.84 25.68L99.92 20.28L90.12 20.28L88.04 25.56L91.56 26.36L91.56 28.20ZM95.12 7L91 17.92L99.04 17.92L95.12 7Z" transform="translate(120.398 56.161) scale(1.729)"></path></svg>